HIERARCHY
ROOT hip
{
  OFFSET 0.0 0.0 0.0
  CHANNELS 6 Xposition Yposition Zposition Zrotation Yrotation Xrotation
  JOINT abdomen
  {
    OFFSET 0.0 20.6881 -0.73152
    CHANNELS 3 Zrotation Xrotation Yrotation
    JOINT chest
    {
      OFFSET 0.0 11.7043 -0.48768
      CHANNELS 3 Zrotation Xrotation Yrotation
      JOINT neck
      {
        OFFSET 0.0 22.1894 -2.19456
        CHANNELS 3 Zrotation Xrotation Yrotation
        JOINT head
        {
          OFFSET -0.24384 7.07133 1.2192
          CHANNELS 3 Zrotation Xrotation Yrotation
          JOINT leftEye
          {
            OFFSET 4.14528 8.04674 8.04672
            CHANNELS 3 Zrotation Xrotation Yrotation
            End Site
            {
              OFFSET 1.0 0.0 0.0
            }
          }
          JOINT rightEye
          {
            OFFSET -3.6576 8.04674 8.04672
            CHANNELS 3 Zrotation Xrotation Yrotation
            End Site
            {
              OFFSET 1.0 0.0 0.0
            }
          }
        }
      }
      JOINT rCollar
      {
        OFFSET -2.68224 19.2634 -4.8768
        CHANNELS 3 Zrotation Xrotation Yrotation
        JOINT rShldr
        {
          OFFSET -8.77824 -1.95073 1.46304
          CHANNELS 3 Zrotation Xrotation Yrotation
          JOINT rForeArm
          {
            OFFSET -28.1742 -1.7115 0.48768
            CHANNELS 3 Zrotation Xrotation Yrotation
            JOINT rHand
            {
              OFFSET -22.5879 0.773209 7.07136
              CHANNELS 3 Zrotation Xrotation Yrotation
              JOINT rThumb1
              {
                OFFSET -1.2192 -0.487915 3.41376
                CHANNELS 3 Zrotation Xrotation Yrotation
                JOINT rThumb2
                {
                  OFFSET -3.37035 -0.52449 3.41376
                  CHANNELS 3 Zrotation Xrotation Yrotation
                  End Site
                  {
                    OFFSET -1.78271 -1.18214 1.43049
                  }
                }
              }
              JOINT rIndex1
              {
                OFFSET -7.75947 0.938293 5.60832
                CHANNELS 3 Zrotation Xrotation Yrotation
                JOINT rIndex2
                {
                  OFFSET -2.54057 -0.884171 1.56538
                  CHANNELS 3 Zrotation Xrotation Yrotation
                  End Site
                  {
                    OFFSET -1.62519 -0.234802 1.16502
                  }
                }
              }
              JOINT rMid1
              {
                OFFSET -8.24714 1.18213 3.41376
                CHANNELS 3 Zrotation Xrotation Yrotation
                JOINT rMid2
                {
                  OFFSET -3.10165 -0.590103 1.0647
                  CHANNELS 3 Zrotation Xrotation Yrotation
                  End Site
                  {
                    OFFSET -2.48547 -0.328903 0.83742
                  }
                }
              }
              JOINT rRing1
              {
                OFFSET -8.82822 0.546677 1.51678
                CHANNELS 3 Zrotation Xrotation Yrotation
                JOINT rRing2
                {
                  OFFSET -2.60934 -0.819778 -0.0198488
                  CHANNELS 3 Zrotation Xrotation Yrotation
                  End Site
                  {
                    OFFSET -2.33842 -0.294052 0.168128
                  }
                }
              }
              JOINT rPinky1
              {
                OFFSET -8.27202 -0.0477905 -0.4584
                CHANNELS 3 Zrotation Xrotation Yrotation
                JOINT rPinky2
                {
                  OFFSET -1.82734 -0.647385 -0.700984
                  CHANNELS 3 Zrotation Xrotation Yrotation
                  End Site
                  {
                    OFFSET -1.69225 -0.51767 -0.607171
                  }
                }
              }
            }
          }
        }
      }
      JOINT lCollar
      {
        OFFSET 2.68224 19.2634 -4.8768
        CHANNELS 3 Zrotation Xrotation Yrotation
        JOINT lShldr
        {
          OFFSET 8.77824 -1.95073 1.46304
          CHANNELS 3 Zrotation Xrotation Yrotation
          JOINT lForeArm
          {
            OFFSET 28.1742 -1.7115 0.48768
            CHANNELS 3 Zrotation Xrotation Yrotation
            JOINT lHand
            {
              OFFSET 22.5879 0.773209 7.07136
              CHANNELS 3 Zrotation Xrotation Yrotation
              JOINT lThumb1
              {
                OFFSET 1.2192 -0.487915 3.41376
                CHANNELS 3 Zrotation Xrotation Yrotation
                JOINT lThumb2
                {
                  OFFSET 3.37035 -0.52449 3.41376
                  CHANNELS 3 Zrotation Xrotation Yrotation
                  End Site
                  {
                    OFFSET 1.78271 -1.18214 1.43049
                  }
                }
              }
              JOINT lIndex1
              {
                OFFSET 7.75947 0.938293 5.60832
                CHANNELS 3 Zrotation Xrotation Yrotation
                JOINT lIndex2
                {
                  OFFSET 2.54057 -0.884171 1.56538
                  CHANNELS 3 Zrotation Xrotation Yrotation
                  End Site
                  {
                    OFFSET 1.62519 -0.234802 1.16502
                  }
                }
              }
              JOINT lMid1
              {
                OFFSET 8.24714 1.18213 3.41376
                CHANNELS 3 Zrotation Xrotation Yrotation
                JOINT lMid2
                {
                  OFFSET 3.10165 -0.590103 1.0647
                  CHANNELS 3 Zrotation Xrotation Yrotation
                  End Site
                  {
                    OFFSET 2.48547 -0.328903 0.83742
                  }
                }
              }
              JOINT lRing1
              {
                OFFSET 8.82822 0.546677 1.51678
                CHANNELS 3 Zrotation Xrotation Yrotation
                JOINT lRing2
                {
                  OFFSET 2.60934 -0.819778 -0.0198488
                  CHANNELS 3 Zrotation Xrotation Yrotation
                  End Site
                  {
                    OFFSET 2.33842 -0.294052 0.168128
                  }
                }
              }
              JOINT lPinky1
              {
                OFFSET 8.27202 -0.0477905 -0.4584
                CHANNELS 3 Zrotation Xrotation Yrotation
                JOINT lPinky2
                {
                  OFFSET 1.82734 -0.647385 -0.700984
                  CHANNELS 3 Zrotation Xrotation Yrotation
                  End Site
                  {
                    OFFSET 1.69225 -0.51767 -0.607171
                  }
                }
              }
            }
          }
        }
      }
    }
  }
  JOINT rButtock
  {
    OFFSET -8.77824 4.35084 1.2192
    CHANNELS 3 Zrotation Xrotation Yrotation
    JOINT rThigh
    {
      OFFSET 0.0 -1.70687 -2.19456
      CHANNELS 3 Zrotation Xrotation Yrotation
      JOINT rShin
      {
        OFFSET 0.0 -36.8199 0.73152
        CHANNELS 3 Zrotation Xrotation Yrotation
        JOINT rFoot
        {
          OFFSET 0.73152 -45.1104 -5.12064
          CHANNELS 3 Zrotation Xrotation Yrotation
          End Site
          {
            OFFSET -1.1221 -3.69964 12.103
          }
        }
      }
    }
  }
  JOINT lButtock
  {
    OFFSET 8.77824 4.35084 1.2192
    CHANNELS 3 Zrotation Xrotation Yrotation
    JOINT lThigh
    {
      OFFSET 0.0 -1.70687 -2.19456
      CHANNELS 3 Zrotation Xrotation Yrotation
      JOINT lShin
      {
        OFFSET 0.0 -36.8199 0.73152
        CHANNELS 3 Zrotation Xrotation Yrotation
        JOINT lFoot
        {
          OFFSET -0.73152 -45.1104 -5.12064
          CHANNELS 3 Zrotation Xrotation Yrotation
          End Site
          {
            OFFSET 1.1221 -3.69964 12.103
          }
        }
      }
    }
  }
}
MOTION
Frames: 4
Frame Time: 0.00833333
4.19525 80.6105 -103.781 2.6875 2.6072 9.5702 -5.54781 6.58593 7.19698 2.18415 -5.93349 1.92837 5.53616 -10.485 -0.446963 -9.73046 0.34043 -3.39813 -0.0 0.0 0.0 -0.0 0.0 0.0 7.99461e-15 6.83792e-14 -1.36664e-13 78.1112 22.7671 0.0828242 -13.3595 -6.44903 24.274 -0.0103402 -2.90205 -0.40821 2.72732e-11 -2.89838e-10 -7.46129e-10 4.66019e-11 -5.03507e-10 -1.29055e-09 2.72796e-11 -2.89836e-10 -7.46133e-10 7.73091 5.47488 0.417314 2.7283e-11 -2.89842e-10 -7.46123e-10 2.90554 0.965183 0.102902 2.72813e-11 -2.8984e-10 -7.46126e-10 10.2786 0.731801 0.0259123 2.72673e-11 -2.8984e-10 -7.4612e-10 2.22167 -0.733487 -0.20892 7.90866e-15 6.83841e-14 -1.36814e-13 -77.2924 -8.85789 18.7988 6.67597 -2.35367 -11.6991 0.105276 9.21425 -1.30637 1.89016e-10 1.54872e-09 4.36127e-10 3.3178e-10 2.67733e-09 7.51419e-10 1.89013e-10 1.54872e-09 4.3614e-10 -7.73091 5.47488 -0.417314 1.89017e-10 1.54872e-09 4.36121e-10 -2.90554 0.965183 -0.102902 1.89014e-10 1.54872e-09 4.36118e-10 -10.2786 0.731801 -0.0259123 1.89025e-10 1.54873e-09 4.36111e-10 -2.22167 -0.733487 0.20892 -2.03217e-16 0.0 -3.88251e-19 -6.36263 -8.70669 -6.74825 -0.961222 56.0663 0.829109 5.12883 20.8203 -21.4163 2.03217e-16 0.0 3.88251e-19 -3.48596 -40.6078 0.47992 0.353867 37.3069 -0.053822 2.33857 -6.33543 9.37253
4.51677 80.7961 -102.521 3.4563 2.6238 9.3405 -6.52581 6.76202 6.65435 2.49864 -5.93052 1.77132 5.74294 -10.4393 -0.276116 -9.85584 0.476447 -3.13441 -0.0 0.0 0.0 -0.0 0.0 0.0 4.46744e-14 -1.17675e-14 -1.36565e-13 78.2765 22.4236 -0.323235 -13.2917 -6.39687 24.1396 -0.00961283 -2.77527 -0.390356 -1.78373e-10 -7.92105e-10 -3.42161e-10 -3.07302e-10 -1.37316e-09 -5.93092e-10 -1.78365e-10 -7.92104e-10 -3.42165e-10 7.73091 5.47488 0.417314 -1.78363e-10 -7.9211e-10 -3.42156e-10 2.90554 0.965183 0.102902 -1.78363e-10 -7.92107e-10 -3.42158e-10 10.2786 0.731801 0.0259123 -1.78379e-10 -7.92107e-10 -3.42153e-10 2.22167 -0.733487 -0.20892 4.45829e-14 -1.17642e-14 -1.36716e-13 -78.0626 -7.11961 18.0266 6.70024 -2.3648 -11.7432 0.081638 8.21396 -1.16217 -1.1119e-10 1.47232e-09 -7.31557e-10 -1.937e-10 2.54986e-09 -1.26543e-09 -1.11192e-10 1.47232e-09 -7.31546e-10 -7.73091 5.47488 -0.417314 -1.11189e-10 1.47232e-09 -7.31562e-10 -2.90554 0.965183 -0.102902 -1.11192e-10 1.47232e-09 -7.31565e-10 -10.2786 0.731801 -0.0259123 -1.11182e-10 1.47233e-09 -7.31571e-10 -2.22167 -0.733487 0.20892 -2.03217e-16 0.0 -3.88251e-19 -7.73184 -11.0676 -7.51664 -1.12619 59.1663 1.01941 4.35137 18.8814 -21.6696 2.03217e-16 0.0 3.88251e-19 -4.59313 -39.1213 0.22081 0.340131 36.7736 -0.0516892 2.39767 -6.61267 9.50798
4.8427 80.9784 -101.247 4.2268 2.6655 9.1158 -7.4921 6.94043 6.07622 2.8071 -5.92672 1.60476 5.98309 -10.3708 -0.0970099 -10.0408 0.552905 -2.87225 -0.0 0.0 0.0 -0.0 0.0 0.0 9.10711e-14 -9.88962e-14 -1.13084e-13 78.4609 22.0619 -0.770634 -13.225 -6.34571 24.0074 -0.00918549 -2.69699 -0.379335 -3.89916e-10 -1.33095e-09 7.44554e-11 -6.70769e-10 -2.3065e-09 1.26112e-10 -3.89904e-10 -1.33095e-09 7.44496e-11 7.73091 5.47488 0.417314 -3.89907e-10 -1.33095e-09 7.44583e-11 2.90554 0.965183 0.102902 -3.89903e-10 -1.33095e-09 7.4458e-11 10.2786 0.731801 0.0259123 -3.89922e-10 -1.33095e-09 7.44635e-11 2.22167 -0.733487 -0.20892 9.09719e-14 -9.88951e-14 -1.13242e-13 -78.8831 -4.9358 17.1698 6.76107 -2.39305 -11.8536 0.0590379 7.02813 -0.992403 -4.44657e-10 1.34326e-09 -2.00037e-09 -7.7546e-10 2.32974e-09 -3.45759e-09 -4.44657e-10 1.34326e-09 -2.00036e-09 -7.73091 5.47488 -0.417314 -4.44656e-10 1.34326e-09 -2.00038e-09 -2.90554 0.965183 -0.102902 -4.44659e-10 1.34326e-09 -2.00038e-09 -10.2786 0.731801 -0.0259123 -4.44651e-10 1.34326e-09 -2.00038e-09 -2.22167 -0.733487 0.20892 -2.03217e-16 0.0 -3.88251e-19 -9.17742 -13.4029 -8.37524 -1.31528 61.9969 1.25273 3.34094 16.4628 -21.8582 2.03217e-16 0.0 3.88251e-19 -5.76253 -37.587 -0.154129 0.323238 36.1755 -0.058506 2.48091 -6.88078 9.7476
5.15972 81.1543 -99.9644 4.9342 2.7203 8.9073 -8.3623 7.099 5.49954 3.07628 -5.91567 1.43926 6.2231 -10.2858 0.0744289 -10.2422 0.603771 -2.62547 -0.0 0.0 0.0 -0.0 0.0 0.0 1.27391e-13 -1.60431e-13 -8.0309e-14 78.6568 21.7163 -1.25984 -13.1574 -6.29421 23.8737 -0.00913463 -2.69498 -0.37905 -5.36503e-10 -1.71769e-09 3.61985e-10 -9.22171e-10 -2.97666e-09 6.22383e-10 -5.36487e-10 -1.71769e-09 3.61977e-10 7.73091 5.47488 0.417314 -5.36494e-10 -1.71769e-09 3.61986e-10 2.90554 0.965183 0.102902 -5.36486e-10 -1.71769e-09 3.61986e-10 10.2786 0.731801 0.0259123 -5.36508e-10 -1.71769e-09 3.61992e-10 2.22167 -0.733487 -0.20892 1.27285e-13 -1.60432e-13 -8.04826e-14 -79.6743 -2.49275 16.2732 6.85958 -2.43991 -12.0314 0.0401039 5.76034 -0.812104 -7.20613e-10 1.20371e-09 -2.94519e-09 -1.25616e-09 2.0901e-09 -5.09018e-09 -7.20612e-10 1.20371e-09 -2.94518e-09 -7.73091 5.47488 -0.417314 -7.20612e-10 1.20371e-09 -2.94519e-09 -2.90554 0.965183 -0.102902 -7.20615e-10 1.20371e-09 -2.94519e-09 -10.2786 0.731801 -0.0259123 -7.20609e-10 1.20372e-09 -2.9452e-09 -2.22167 -0.733487 0.20892 -2.03217e-16 0.0 -3.88251e-19 -10.6102 -15.6967 -9.2482 -1.52419 64.5044 1.51478 2.23313 13.8847 -21.9678 2.03217e-16 0.0 3.88251e-19 -6.87912 -36.0446 -0.5599 0.30522 35.572 -0.0728081 2.58565 -7.14661 10.0762
